# This file uses centimeters as units for non-parametric coordinates.

mtllib Building_3sides.mtl
g default
v -0.493075 -0.500000 -0.500000
v -0.493075 -0.500000 0.500000
v 0.484902 -0.500000 0.000000
v -0.493075 0.500000 -0.500000
v -0.493075 0.500000 0.500000
v 0.484902 0.500000 0.000000
vt 0.005182 0.383940
vt 0.335059 0.383940
vt 0.335059 0.670161
vt 0.005182 0.670161
vt 0.664940 0.383940
vt 0.664940 0.670161
vt 0.994818 0.383940
vt 0.994818 0.670161
vt 0.662531 0.385258
vt 0.502212 0.663313
vt 0.341570 0.385444
vt 0.339161 0.382840
vt 0.660122 0.382654
vt 0.499803 0.660708
vn -1.000000 0.000000 -0.000000
vn -1.000000 0.000000 -0.000000
vn -1.000000 0.000000 -0.000000
vn -1.000000 0.000000 -0.000000
vn 0.455216 0.000000 0.890381
vn 0.455216 0.000000 0.890381
vn 0.455216 0.000000 0.890381
vn 0.455216 0.000000 0.890381
vn 0.455216 0.000000 -0.890381
vn 0.455216 0.000000 -0.890381
vn 0.455216 0.000000 -0.890381
vn 0.455216 0.000000 -0.890381
vn 0.000000 -1.000000 0.000000
vn 0.000000 -1.000000 0.000000
vn 0.000000 -1.000000 0.000000
vn 0.000000 1.000000 0.000000
vn 0.000000 1.000000 0.000000
vn 0.000000 1.000000 0.000000
s off
g Building_3sides:pPrism1
usemtl initialShadingGroup
f 1/1/1 2/2/2 5/3/3 4/4/4
f 2/2/5 3/5/6 6/6/7 5/3/8
f 3/5/9 1/7/10 4/8/11 6/6/12
f 1/9/13 3/10/14 2/11/15
f 4/12/16 5/13/17 6/14/18
