# This file uses centimeters as units for non-parametric coordinates.

mtllib Building_3sides_Outter.mtl
g default
v -0.494295 -0.226745 -0.500000
v -0.494295 -0.226745 0.500000
v 0.483682 0.208340 0.000000
v -0.494295 -0.497937 -0.500000
v -0.494295 -0.497937 0.500000
v 0.483682 -0.497937 0.000000
v -0.005306 -0.010694 0.250000
v -0.005310 -0.010694 -0.250002
v -0.005306 -0.497937 -0.250000
v -0.005306 -0.497937 0.250000
v -0.249801 -0.226745 0.375000
v -0.250049 -0.226745 -0.375127
v -0.249800 -0.497937 -0.375000
v -0.249801 -0.497937 0.375000
v 0.239188 -0.497937 -0.125000
v 0.239188 -0.497937 0.125000
v 0.239188 0.208340 0.125000
v 0.239186 0.208340 -0.125001
v -0.493075 -0.203577 -0.500000
v -0.493075 -0.203577 0.500000
v 0.484902 0.229568 0.000000
v -0.493075 0.500000 -0.500000
v -0.493075 0.500000 0.500000
v 0.484902 0.500000 0.000000
v -0.004087 0.012758 0.250000
v -0.004091 0.012758 -0.250002
v -0.004087 0.500000 -0.250000
v -0.004087 0.500000 0.250000
v -0.248581 -0.203577 0.375000
v -0.248829 -0.203577 -0.375127
v -0.248581 0.500000 -0.375000
v -0.248581 0.500000 0.375000
v 0.240408 0.500000 -0.125000
v 0.240408 0.500000 0.125000
v 0.240408 0.229568 0.125000
v 0.240406 0.229568 -0.125001
vt 0.001378 0.312500
vt 0.001378 0.688440
vt 0.330862 0.688440
vt 0.330862 0.312500
vt 0.577976 0.688440
vt 0.660350 0.688440
vt 0.660350 0.312500
vt 0.577976 0.312500
vt 0.742720 0.688440
vt 0.742720 0.312500
vt 0.124870 0.903938
vt 0.165951 0.975012
vt 0.206962 0.903898
vt 0.125073 0.903938
vt 0.166153 0.975012
vt 0.207164 0.903898
vt 0.042709 0.761791
vt 0.083789 0.832865
vt 0.247974 0.832784
vt 0.289026 0.761598
vt 0.825090 0.688440
vt 0.907464 0.688440
vt 0.907547 0.312500
vt 0.825094 0.312500
vt 0.042911 0.761791
vt 0.083992 0.832865
vt 0.248175 0.832785
vt 0.289186 0.761671
vt 0.413236 0.688440
vt 0.495606 0.688440
vt 0.495606 0.312500
vt 0.413236 0.312500
vt 0.329995 0.690557
vt 0.001628 0.690717
vt 0.989834 0.688440
vt 0.989834 0.312500
vt 0.001831 0.690717
vt 0.330197 0.690557
vt 0.001378 0.312500
vt 0.330862 0.312500
vt 0.330862 0.688440
vt 0.001378 0.688440
vt 0.577976 0.688440
vt 0.577976 0.312500
vt 0.660350 0.312500
vt 0.660350 0.688440
vt 0.742720 0.312500
vt 0.742720 0.688440
vt 0.124870 0.903938
vt 0.206962 0.903898
vt 0.165951 0.975012
vt 0.125073 0.903938
vt 0.207164 0.903898
vt 0.166153 0.975012
vt 0.042709 0.761791
vt 0.289026 0.761598
vt 0.247974 0.832784
vt 0.083789 0.832865
vt 0.825090 0.688440
vt 0.825094 0.312500
vt 0.907547 0.312500
vt 0.907464 0.688440
vt 0.042911 0.761791
vt 0.289186 0.761671
vt 0.248175 0.832785
vt 0.083992 0.832865
vt 0.413236 0.688440
vt 0.413236 0.312500
vt 0.495606 0.312500
vt 0.495606 0.688440
vt 0.329995 0.690557
vt 0.001628 0.690717
vt 0.989834 0.312500
vt 0.989834 0.688440
vt 0.001831 0.690717
vt 0.330197 0.690557
vn -1.000000 0.000000 -0.000000
vn -1.000000 0.000000 -0.000000
vn -1.000000 0.000000 -0.000000
vn -1.000000 0.000000 -0.000000
vn 0.455216 0.000000 0.890381
vn 0.455216 0.000000 0.890381
vn 0.455216 0.000000 0.890381
vn 0.455216 0.000000 0.890381
vn 0.455216 0.000000 -0.890381
vn 0.455216 0.000000 -0.890381
vn 0.455216 0.000000 -0.890381
vn 0.455216 0.000000 -0.890381
vn -0.601697 0.798725 0.000005
vn 0.000000 1.000000 0.000000
vn -0.601698 0.798724 0.000005
vn 0.000000 -1.000000 0.000000
vn 0.000000 -1.000000 0.000000
vn 0.000000 -1.000000 0.000000
vn -0.253459 0.967346 0.000051
vn -0.663432 0.748237 0.000098
vn -0.663432 0.748237 0.000098
vn -0.253316 0.967384 0.000051
vn 0.455216 0.000000 -0.890381
vn 0.455216 0.000000 -0.890381
vn 0.455216 0.000000 -0.890381
vn 0.455216 0.000000 -0.890381
vn 0.000000 -1.000000 0.000000
vn 0.000000 -1.000000 0.000000
vn 0.000000 -1.000000 0.000000
vn 0.000000 -1.000000 0.000000
vn 0.455216 0.000000 0.890381
vn 0.455216 0.000000 0.890381
vn 0.455216 0.000000 0.890381
vn 0.455216 0.000000 0.890381
vn 0.000000 1.000000 0.000000
vn 0.000000 1.000000 0.000000
vn -0.253459 0.967346 0.000051
vn -0.253316 0.967384 0.000051
vn 0.455216 0.000000 -0.890381
vn 0.455216 0.000000 -0.890381
vn 0.455216 0.000000 -0.890381
vn 0.455216 0.000000 -0.890381
vn 0.000000 -1.000000 0.000000
vn 0.000000 -1.000000 0.000000
vn 0.000000 -1.000000 0.000000
vn 0.000000 -1.000000 0.000000
vn 0.455216 0.000000 0.890381
vn 0.455216 0.000000 0.890381
vn 0.455216 0.000000 0.890381
vn 0.455216 0.000000 0.890381
vn 0.000000 -1.000000 0.000000
vn 0.000000 -1.000000 0.000000
vn 0.000000 -1.000000 0.000000
vn 0.000000 -1.000000 0.000000
vn 0.455216 0.000000 0.890381
vn 0.455216 0.000000 0.890381
vn 0.455216 0.000000 0.890381
vn 0.455216 0.000000 0.890381
vn -0.663432 0.748237 0.000098
vn -0.601697 0.798725 0.000005
vn -0.601698 0.798724 0.000005
vn -0.663432 0.748237 0.000098
vn 0.455216 0.000000 -0.890381
vn 0.455216 0.000000 -0.890381
vn 0.455216 0.000000 -0.890381
vn 0.455216 0.000000 -0.890381
vn -1.000000 0.000000 -0.000000
vn -1.000000 0.000000 -0.000000
vn -1.000000 0.000000 -0.000000
vn -1.000000 0.000000 -0.000000
vn 0.455216 0.000000 0.890381
vn 0.455216 0.000000 0.890381
vn 0.455216 0.000000 0.890381
vn 0.455216 0.000000 0.890381
vn 0.455216 0.000000 -0.890381
vn 0.455216 0.000000 -0.890381
vn 0.455216 0.000000 -0.890381
vn 0.455216 0.000000 -0.890381
vn 0.597825 -0.801627 -0.000005
vn 0.597827 -0.801625 -0.000005
vn 0.000000 -1.000000 0.000000
vn 0.000000 1.000000 0.000000
vn 0.000000 1.000000 0.000000
vn 0.000000 1.000000 0.000000
vn 0.253798 -0.967257 -0.000051
vn 0.253654 -0.967295 -0.000051
vn 0.662748 -0.748842 -0.000099
vn 0.662748 -0.748842 -0.000099
vn 0.455216 0.000000 -0.890381
vn 0.455216 0.000000 -0.890381
vn 0.455216 0.000000 -0.890381
vn 0.455216 0.000000 -0.890381
vn 0.000000 1.000000 0.000000
vn 0.000000 1.000000 0.000000
vn 0.000000 1.000000 0.000000
vn 0.000000 1.000000 0.000000
vn 0.455216 0.000000 0.890381
vn 0.455216 0.000000 0.890381
vn 0.455216 0.000000 0.890381
vn 0.455216 0.000000 0.890381
vn 0.000000 -1.000000 0.000000
vn 0.253654 -0.967295 -0.000051
vn 0.253798 -0.967257 -0.000051
vn 0.000000 -1.000000 0.000000
vn 0.455216 0.000000 -0.890381
vn 0.455216 0.000000 -0.890381
vn 0.455216 0.000000 -0.890381
vn 0.455216 0.000000 -0.890381
vn 0.000000 1.000000 0.000000
vn 0.000000 1.000000 0.000000
vn 0.000000 1.000000 0.000000
vn 0.000000 1.000000 0.000000
vn 0.455216 0.000000 0.890381
vn 0.455216 0.000000 0.890381
vn 0.455216 0.000000 0.890381
vn 0.455216 0.000000 0.890381
vn 0.000000 1.000000 0.000000
vn 0.000000 1.000000 0.000000
vn 0.000000 1.000000 0.000000
vn 0.000000 1.000000 0.000000
vn 0.455216 0.000000 0.890381
vn 0.455216 0.000000 0.890381
vn 0.455216 0.000000 0.890381
vn 0.455216 0.000000 0.890381
vn 0.662748 -0.748842 -0.000099
vn 0.662748 -0.748842 -0.000099
vn 0.597827 -0.801625 -0.000005
vn 0.597825 -0.801627 -0.000005
vn 0.455216 0.000000 -0.890381
vn 0.455216 0.000000 -0.890381
vn 0.455216 0.000000 -0.890381
vn 0.455216 0.000000 -0.890381
s off
g Building_3sides_Outter:pPrism11
usemtl initialShadingGroup
f 1/1/1 4/2/2 5/3/3 2/4/4
f 16/5/5 6/6/6 3/7/7 17/8/8
f 3/7/9 6/6/10 15/9/11 18/10/12
f 17/11/13 3/12/14 18/13/15
f 15/14/16 6/15/17 16/16/18
f 11/17/19 7/18/20 8/19/21 12/20/22
f 9/21/23 13/22/24 12/23/25 8/24/26
f 13/25/27 9/26/28 10/27/29 14/28/30
f 14/29/31 10/30/32 7/31/33 11/32/34
f 1/33/35 2/34/36 11/17/37 12/20/38
f 13/22/39 4/35/40 1/36/41 12/23/42
f 4/37/43 13/25/44 14/28/45 5/38/46
f 2/4/47 5/3/48 14/29/49 11/32/50
f 9/26/51 15/14/52 16/16/53 10/27/54
f 10/30/55 16/5/56 17/8/57 7/31/58
f 7/18/59 17/11/60 18/13/61 8/19/62
f 15/9/63 9/21/64 8/24/65 18/10/66
f 19/39/67 20/40/68 23/41/69 22/42/70
f 34/43/71 35/44/72 21/45/73 24/46/74
f 21/45/75 36/47/76 33/48/77 24/46/78
f 35/49/79 36/50/80 21/51/81
f 33/52/82 34/53/83 24/54/84
f 29/55/85 30/56/86 26/57/87 25/58/88
f 27/59/89 26/60/90 30/61/91 31/62/92
f 31/63/93 32/64/94 28/65/95 27/66/96
f 32/67/97 29/68/98 25/69/99 28/70/100
f 19/71/101 30/56/102 29/55/103 20/72/104
f 31/62/105 30/61/106 19/73/107 22/74/108
f 22/75/109 23/76/110 32/64/111 31/63/112
f 20/40/113 29/68/114 32/67/115 23/41/116
f 27/66/117 28/65/118 34/53/119 33/52/120
f 28/70/121 25/69/122 35/44/123 34/43/124
f 25/58/125 26/57/126 36/50/127 35/49/128
f 33/48/129 36/47/130 26/60/131 27/59/132
