# This file uses centimeters as units for non-parametric coordinates.

mtllib Building_6sides_Roof.mtl
g default
v 0.250000 -0.500000 -0.433013
v -0.250000 -0.500000 -0.433013
v -0.500000 -0.500000 0.000000
v -0.250000 -0.500000 0.433013
v 0.250000 -0.500000 0.433013
v 0.500000 -0.500000 0.000000
v 0.250000 0.500000 -0.433013
v -0.250000 -0.116736 -0.433013
v -0.500000 -0.116736 0.000000
v -0.250000 -0.116736 0.433013
v 0.250000 0.500000 0.433013
v 0.500000 0.500000 0.000000
vt 0.170844 0.312500
vt 0.170844 0.688440
vt 0.006264 0.312500
vt 0.006264 0.688440
vt 0.335420 0.312500
vt 0.335420 0.688440
vt 0.500000 0.312500
vt 0.500000 0.688440
vt 0.664580 0.312500
vt 0.664580 0.688440
vt 0.829156 0.312500
vt 0.829156 0.688440
vt 0.993736 0.312500
vt 0.993736 0.688440
vt 0.500903 0.693139
vt 0.581902 0.833432
vt 0.338906 0.693139
vt 0.500903 0.973725
vt 0.338906 0.973725
vt 0.257908 0.833432
vt 0.498527 0.973740
vt 0.498527 0.693154
vt 0.579526 0.833447
vt 0.336530 0.693154
vt 0.336530 0.973740
vt 0.255532 0.833447
vn 0.000000 0.000000 -1.000000
vn 0.000000 0.000000 -1.000000
vn 0.000000 0.000000 -1.000000
vn 0.000000 0.000000 -1.000000
vn 0.000000 0.000000 -1.000000
vn 0.000000 0.000000 -1.000000
vn -0.866025 0.000000 -0.500000
vn -0.866025 0.000000 -0.500000
vn -0.866025 0.000000 -0.500000
vn -0.866025 0.000000 -0.500000
vn -0.866025 0.000000 -0.500000
vn -0.866025 0.000000 -0.500000
vn -0.866026 0.000000 0.500000
vn -0.866026 0.000000 0.500000
vn -0.866026 0.000000 0.500000
vn -0.866026 0.000000 0.500000
vn -0.866026 0.000000 0.500000
vn -0.866026 0.000000 0.500000
vn 0.000000 0.000000 1.000000
vn 0.000000 0.000000 1.000000
vn 0.000000 0.000000 1.000000
vn 0.000000 0.000000 1.000000
vn 0.000000 0.000000 1.000000
vn 0.000000 0.000000 1.000000
vn 0.866026 0.000000 0.500000
vn 0.866026 0.000000 0.500000
vn 0.866026 0.000000 0.500000
vn 0.866026 0.000000 0.500000
vn 0.866026 0.000000 0.500000
vn 0.866026 0.000000 0.500000
vn 0.866026 0.000000 -0.500000
vn 0.866026 0.000000 -0.500000
vn 0.866026 0.000000 -0.500000
vn 0.866026 0.000000 -0.500000
vn 0.866026 0.000000 -0.500000
vn 0.866026 0.000000 -0.500000
vn 0.000000 -1.000000 0.000000
vn 0.000000 -1.000000 0.000000
vn 0.000000 -1.000000 0.000000
vn 0.000000 -1.000000 0.000000
vn 0.000000 -1.000000 0.000000
vn 0.000000 -1.000000 0.000000
vn 0.000000 -1.000000 0.000000
vn 0.000000 -1.000000 0.000000
vn 0.000000 -1.000000 0.000000
vn 0.000000 -1.000000 0.000000
vn 0.000000 -1.000000 0.000000
vn 0.000000 -1.000000 0.000000
vn 0.000000 1.000000 0.000000
vn 0.000000 1.000000 0.000000
vn 0.000000 1.000000 0.000000
vn 0.000000 1.000000 0.000000
vn 0.000000 1.000000 0.000000
vn 0.000000 1.000000 0.000000
vn -0.776790 0.629759 -0.000000
vn -0.776790 0.629759 -0.000000
vn -0.776790 0.629759 -0.000000
vn -0.776790 0.629759 -0.000000
vn -0.776790 0.629759 -0.000000
vn -0.776790 0.629759 -0.000000
s off
g Building_6sides_Roof:pPrism5
usemtl initialShadingGroup
f 2/1/1 8/2/2 1/3/3
f 1/3/4 8/2/5 7/4/6
f 2/1/7 3/5/8 8/2/9
f 8/2/10 3/5/11 9/6/12
f 3/5/13 4/7/14 9/6/15
f 9/6/16 4/7/17 10/8/18
f 4/7/19 5/9/20 10/8/21
f 10/8/22 5/9/23 11/10/24
f 5/9/25 6/11/26 11/10/27
f 11/10/28 6/11/29 12/12/30
f 6/11/31 1/13/32 12/12/33
f 12/12/34 1/13/35 7/14/36
f 1/15/37 6/16/38 2/17/39
f 6/16/40 5/18/41 2/17/42
f 5/18/43 4/19/44 2/17/45
f 4/19/46 3/20/47 2/17/48
f 7/21/49 11/22/50 12/23/51
f 10/24/52 8/25/53 9/26/54
f 7/21/55 8/25/56 11/22/57
f 11/22/58 8/25/59 10/24/60
